<?xml version="1.0" encoding="utf-8"?>
<!-- Generator: Adobe Illustrator 27.2.0, SVG Export Plug-In . SVG Version: 6.00 Build 0)  -->
<svg version="1.1" id="Layer_1" xmlns="http://www.w3.org/2000/svg" xmlns:xlink="http://www.w3.org/1999/xlink" x="0px" y="0px"
	 viewBox="0 0 675.4 237.4" style="enable-background:new 0 0 675.4 237.4;" xml:space="preserve">
<style type="text/css">
	.st0{clip-path:url(#SVGID_00000075163649025514726150000005968410784621435324_);}
	.st1{clip-path:url(#SVGID_00000183960310369445350140000010216437968091708043_);}
	.st2{clip-path:url(#SVGID_00000095309309493631482630000004096813925467951241_);}
	.st3{clip-path:url(#SVGID_00000119837047976818666900000010244660035211947689_);fill:#00AED6;}
	.st4{clip-path:url(#SVGID_00000141414923877234029420000010884714074645488787_);fill:#F2CA99;}
	.st5{clip-path:url(#SVGID_00000024694788864981121950000000557930277090123436_);fill:#193773;}
	.st6{clip-path:url(#SVGID_00000178171559636581684320000005927254450828530109_);fill:#193773;}
	.st7{clip-path:url(#SVGID_00000078747493914158997950000011862997044461770886_);fill:#9AD9C2;}
	.st8{clip-path:url(#SVGID_00000159429958843359949620000009675266450575052432_);fill:#193773;}
</style>
<g>
	<defs>
		<path id="SVGID_00000080923758377988053320000010230913494854914967_" d="M51.3,0h69.8L78.5,149.2L159.2,0h71.9L86,237.4H0L51.3,0
			z M242.5,0H310l-99.8,237.4h-67.6L242.5,0z M333.5,0h63.2l-11.3,99.7l40-99.7h66.9l-99.8,237.4h-64.4l12.5-104.8l-42.2,104.8
			h-64.8L333.5,0z M515.6,0h67.6l-41.6,98.7L608.1,0h67.3l-95.1,140.1l-5.6,97.4h-67.3l14.1-88.9l-38.2,88.9h-67.6L515.6,0z"/>
	</defs>
	<use xlink:href="#SVGID_00000080923758377988053320000010230913494854914967_"  style="overflow:visible;fill:#F26835;"/>
	<clipPath id="SVGID_00000010278699476067382270000013714685603951844238_">
		<use xlink:href="#SVGID_00000080923758377988053320000010230913494854914967_"  style="overflow:visible;"/>
	</clipPath>
	<path style="clip-path:url(#SVGID_00000010278699476067382270000013714685603951844238_);fill:#193773;" d="M120.2-72.4L133-85.3
		l378.4,378.4L498.6,306L120.2-72.4z M471.8,332.7l12.9-12.9L106.3-58.5L93.4-45.7L471.8,332.7z M445.1,359.4l12.9-12.9L79.6-31.8
		L66.7-18.9L445.1,359.4z M418.4,386.2l12.9-12.9L52.9-5.1L40,7.8L418.4,386.2z M391.7,412.9l12.9-12.9L26.1,21.6L13.3,34.5
		L391.7,412.9z M364.9,439.6l12.9-12.9L-0.6,48.4l-12.9,12.9L364.9,439.6z M338.2,466.3l12.9-12.9L-27.3,75.1L-40.2,88L338.2,466.3z
		 M311.5,493.1l12.9-12.9L-54,101.8l-12.9,12.9L311.5,493.1z M284.8,519.8l12.9-12.9L-80.8,128.5l-12.9,12.9L284.8,519.8z
		 M258,546.5l12.9-12.9l-378.4-378.4l-12.9,12.9L258,546.5z M231.3,573.2l12.9-12.9L-134.2,182l-12.9,12.9L231.3,573.2z M204.6,600
		l12.9-12.9l-378.4-378.4l-12.9,12.9L204.6,600z M819.3-14.8l12.9-12.9L453.8-406l-12.9,12.9L819.3-14.8z M792.6,12l12.9-12.9
		L427.1-379.3l-12.9,12.9L792.6,12z M765.9,38.7l12.9-12.9L400.3-352.6l-12.9,12.9L765.9,38.7z M739.1,65.4L752,52.5L373.6-325.8
		L360.8-313L739.1,65.4z M712.4,92.1l12.9-12.9L346.9-299.1L334-286.2L712.4,92.1z M685.7,118.9l12.9-12.9L320.2-272.4l-12.9,12.9
		L685.7,118.9z M659,145.6l12.9-12.9L293.4-245.7l-12.9,12.9L659,145.6z M632.2,172.3l12.9-12.9L266.7-218.9l-12.9,12.9L632.2,172.3
		z M605.5,199l12.9-12.9L240-192.2l-12.9,12.9L605.5,199z M578.8,225.8l12.9-12.9L213.3-165.5l-12.9,12.9L578.8,225.8z M552.1,252.5
		l12.9-12.9L186.5-138.8l-12.9,12.9L552.1,252.5z M525.3,279.2l12.9-12.9L159.8-112L147-99.2L525.3,279.2z"/>
</g>
</svg>
