<?xml version="1.0" encoding="utf-8"?>
<!-- Generator: Adobe Illustrator 27.2.0, SVG Export Plug-In . SVG Version: 6.00 Build 0)  -->
<svg version="1.1" id="Layer_1" xmlns="http://www.w3.org/2000/svg" xmlns:xlink="http://www.w3.org/1999/xlink" x="0px" y="0px"
	 viewBox="0 0 456 308" style="enable-background:new 0 0 456 308;" xml:space="preserve">
<style type="text/css">
	.st0{fill:#F29544;}
	.st1{clip-path:url(#SVGID_00000032610903256574068290000015437879227773989529_);}
	.st2{opacity:0.56;}
	.st3{clip-path:url(#SVGID_00000163031322184222850170000015995613802788945078_);}
	.st4{opacity:0.27;fill:#FFFFFF;enable-background:new    ;}
	.st5{fill:#F26835;}
	.st6{opacity:0.1;}
	.st7{clip-path:url(#SVGID_00000060715892628928039730000002627145731225620644_);}
	.st8{fill:#FFFFFF;}
	.st9{opacity:0.3;}
	.st10{clip-path:url(#SVGID_00000031920096629230136460000015321712132869252502_);}
	.st11{clip-path:url(#SVGID_00000070839375599822242680000006888587736904123802_);}
	.st12{opacity:0.4;}
	.st13{clip-path:url(#SVGID_00000181775381617850542360000016193093396633852849_);}
	.st14{fill:#F2DA5E;}
</style>
<g>
	<rect x="-0.1" class="st0" width="458" height="308"/>
	<g>
		<defs>
			<rect id="SVGID_1_" x="-0.1" width="458" height="308"/>
		</defs>
		<clipPath id="SVGID_00000068658648912677437430000010534833798074951063_">
			<use xlink:href="#SVGID_1_"  style="overflow:visible;"/>
		</clipPath>
		<g style="clip-path:url(#SVGID_00000068658648912677437430000010534833798074951063_);">
			<g class="st2">
				<g>
					<defs>
						<polygon id="SVGID_00000060001018676952719590000003953810636779999652_" points="543.5,569.8 347.7,765.5 -63.3,339.6 
							132.4,143.8 						"/>
					</defs>
					<clipPath id="SVGID_00000049941813075172167150000013085215774628532647_">
						<use xlink:href="#SVGID_00000060001018676952719590000003953810636779999652_"  style="overflow:visible;"/>
					</clipPath>
					<g style="clip-path:url(#SVGID_00000049941813075172167150000013085215774628532647_);">
						<g>
							<rect x="1.7" y="-26.2" class="st4" width="28.1" height="827.7"/>
							<rect x="63.2" y="-26.2" class="st4" width="25.1" height="827.7"/>
							<rect x="118.7" y="-26.2" class="st4" width="28.2" height="827.7"/>
							<rect x="177.1" y="-26.2" class="st4" width="28.1" height="827.7"/>
							<rect x="235.6" y="-26.2" class="st4" width="28.1" height="827.7"/>
							<rect x="297" y="-26.2" class="st5" width="28.1" height="827.7"/>
							<rect x="355.5" y="-26.2" class="st5" width="28.1" height="827.7"/>
							<rect x="413.9" y="-26.2" class="st5" width="28.1" height="827.7"/>
						</g>
					</g>
				</g>
			</g>
			<g class="st6">
				<g>
					<defs>
						<polygon id="SVGID_00000020357093690835638440000007638101377123301555_" points="3,308 3,0 456.8,0 						"/>
					</defs>
					<clipPath id="SVGID_00000142164424644076730220000017850339676449322903_">
						<use xlink:href="#SVGID_00000020357093690835638440000007638101377123301555_"  style="overflow:visible;"/>
					</clipPath>
					<g style="clip-path:url(#SVGID_00000142164424644076730220000017850339676449322903_);">
						<g>
							<circle class="st8" cx="439.1" cy="299.7" r="19.9"/>
							<circle class="st8" cx="439.1" cy="249.1" r="19.9"/>
							<circle class="st8" cx="439.1" cy="198.6" r="19.9"/>
							<circle class="st8" cx="439.1" cy="148.1" r="19.9"/>
							<circle class="st8" cx="439.1" cy="97.6" r="19.9"/>
							<circle class="st8" cx="439.1" cy="47" r="19.9"/>
							<circle class="st8" cx="439.1" cy="-3.5" r="19.9"/>
							<circle class="st8" cx="390.4" cy="274.4" r="19.9"/>
							<circle class="st8" cx="390.4" cy="223.9" r="19.9"/>
							<circle class="st8" cx="390.4" cy="173.4" r="19.9"/>
							<circle class="st8" cx="390.4" cy="122.8" r="19.9"/>
							<circle class="st8" cx="390.4" cy="72.3" r="19.9"/>
							<circle class="st8" cx="390.4" cy="21.8" r="19.9"/>
							<circle class="st8" cx="341.7" cy="299.7" r="19.9"/>
							<circle class="st8" cx="341.7" cy="249.1" r="19.9"/>
							<circle class="st8" cx="341.7" cy="198.6" r="19.9"/>
							<circle class="st8" cx="341.7" cy="148.1" r="19.9"/>
							<circle class="st8" cx="341.7" cy="97.6" r="19.9"/>
							<circle class="st8" cx="341.7" cy="47" r="19.9"/>
							<circle class="st8" cx="341.7" cy="-3.5" r="19.9"/>
							<circle class="st8" cx="293" cy="274.4" r="19.9"/>
							<circle class="st8" cx="293" cy="223.9" r="19.9"/>
							<circle class="st8" cx="293" cy="173.4" r="19.9"/>
							<circle class="st8" cx="293" cy="122.8" r="19.9"/>
							<circle class="st8" cx="293" cy="72.3" r="19.9"/>
							<circle class="st8" cx="293" cy="21.8" r="19.9"/>
							<circle class="st8" cx="244.3" cy="299.7" r="19.9"/>
							<circle class="st8" cx="244.3" cy="249.1" r="19.9"/>
							<circle class="st8" cx="244.3" cy="198.6" r="19.9"/>
							<circle class="st8" cx="244.3" cy="148.1" r="19.9"/>
							<circle class="st8" cx="244.3" cy="97.6" r="19.9"/>
							<circle class="st8" cx="244.3" cy="47" r="19.9"/>
							<circle class="st8" cx="244.3" cy="-3.5" r="19.9"/>
							<circle class="st8" cx="195.6" cy="274.4" r="19.9"/>
							<circle class="st8" cx="195.6" cy="223.9" r="19.9"/>
							<circle class="st8" cx="195.6" cy="173.4" r="19.9"/>
							<circle class="st8" cx="195.6" cy="122.8" r="19.9"/>
							<circle class="st8" cx="195.6" cy="72.3" r="19.9"/>
							<circle class="st8" cx="195.6" cy="21.8" r="19.9"/>
							<circle class="st8" cx="146.8" cy="299.7" r="19.9"/>
							
								<ellipse transform="matrix(7.088904e-02 -0.9975 0.9975 7.088904e-02 -112.1011 377.9294)" class="st8" cx="146.8" cy="249.1" rx="19.9" ry="19.9"/>
							
								<ellipse transform="matrix(7.088904e-02 -0.9975 0.9975 7.088904e-02 -61.6983 330.9814)" class="st8" cx="146.8" cy="198.6" rx="19.9" ry="19.9"/>
							<circle class="st8" cx="146.8" cy="148.1" r="19.9"/>
							<circle class="st8" cx="146.8" cy="97.6" r="19.9"/>
							<circle class="st8" cx="146.8" cy="47" r="19.9"/>
							<circle class="st8" cx="146.8" cy="-3.5" r="19.9"/>
							<circle class="st8" cx="98.1" cy="274.4" r="19.9"/>
							<circle class="st8" cx="98.1" cy="223.9" r="19.9"/>
							<circle class="st8" cx="98.1" cy="173.4" r="19.9"/>
							<circle class="st8" cx="98.1" cy="122.8" r="19.9"/>
							<circle class="st8" cx="98.1" cy="72.3" r="19.9"/>
							<circle class="st8" cx="98.1" cy="21.8" r="19.9"/>
							<circle class="st8" cx="49.4" cy="299.7" r="19.9"/>
							
								<ellipse transform="matrix(4.531443e-02 -0.999 0.999 4.531443e-02 -201.7417 287.1796)" class="st8" cx="49.4" cy="249.1" rx="19.9" ry="19.9"/>
							
								<ellipse transform="matrix(4.531443e-02 -0.999 0.999 4.531443e-02 -151.2636 238.9394)" class="st8" cx="49.4" cy="198.6" rx="19.9" ry="19.9"/>
							<circle class="st8" cx="49.4" cy="148.1" r="19.9"/>
							<circle class="st8" cx="49.4" cy="97.6" r="19.9"/>
							<circle class="st8" cx="49.4" cy="47" r="19.9"/>
							<circle class="st8" cx="49.4" cy="-3.5" r="19.9"/>
							<circle class="st8" cx="0.7" cy="274.4" r="19.9"/>
							<circle class="st8" cx="0.7" cy="223.9" r="19.9"/>
							<circle class="st8" cx="0.7" cy="173.4" r="19.9"/>
							<circle class="st8" cx="0.7" cy="122.8" r="19.9"/>
							<circle class="st8" cx="0.7" cy="72.3" r="19.9"/>
							<circle class="st8" cx="0.7" cy="21.8" r="19.9"/>
						</g>
					</g>
				</g>
			</g>
			<g class="st9">
				<g>
					<defs>
						<path id="SVGID_00000014620742413407350670000007297961943439200919_" d="M405.7,17.2L405.7,17.2
							c65.8,0,118.4,54.8,115.6,120.5l0,0c-2.6,62-53.6,111-115.6,111l0,0c-65.8,0-118.4-54.8-115.6-120.5l0,0
							C292.6,66.1,343.6,17.2,405.7,17.2z"/>
					</defs>
					<clipPath id="SVGID_00000154383753920799794600000003414376454110410386_">
						<use xlink:href="#SVGID_00000014620742413407350670000007297961943439200919_"  style="overflow:visible;"/>
					</clipPath>
					<g style="clip-path:url(#SVGID_00000154383753920799794600000003414376454110410386_);">
						<g>
							
								<rect x="300.4" y="338.7" transform="matrix(0.7071 -0.7071 0.7071 0.7071 -92.8587 468.1168)" class="st8" width="436.5" height="14.8"/>
							
								<rect x="278.6" y="316.9" transform="matrix(0.7071 -0.7071 0.7071 0.7071 -83.8288 446.3168)" class="st8" width="436.5" height="14.8"/>
							
								<rect x="256.8" y="295.1" transform="matrix(0.7071 -0.7071 0.7071 0.7071 -74.7988 424.5168)" class="st8" width="436.5" height="14.8"/>
							
								<rect x="235" y="273.3" transform="matrix(0.7071 -0.7071 0.7071 0.7071 -65.7688 402.7167)" class="st8" width="436.5" height="14.8"/>
							
								<rect x="213.2" y="251.5" transform="matrix(0.7071 -0.7071 0.7071 0.7071 -56.7318 380.9137)" class="st8" width="436.5" height="14.8"/>
							
								<rect x="191.4" y="229.7" transform="matrix(0.7071 -0.7071 0.7071 0.7071 -47.7019 359.1137)" class="st8" width="436.5" height="14.8"/>
							
								<rect x="169.6" y="207.9" transform="matrix(0.7071 -0.7071 0.7071 0.7071 -38.6719 337.3136)" class="st8" width="436.5" height="14.8"/>
							
								<rect x="147.8" y="186.1" transform="matrix(0.7071 -0.7071 0.7071 0.7071 -29.642 315.5136)" class="st8" width="436.5" height="14.8"/>
							
								<rect x="126" y="164.3" transform="matrix(0.7071 -0.7071 0.7071 0.7071 -20.612 293.7136)" class="st8" width="436.5" height="14.8"/>
							
								<rect x="104.2" y="142.5" transform="matrix(0.7071 -0.7071 0.7071 0.7071 -11.582 271.9135)" class="st8" width="436.5" height="14.8"/>
							
								<rect x="82.4" y="120.7" transform="matrix(0.7071 -0.7071 0.7071 0.7071 -2.5521 250.1135)" class="st8" width="436.5" height="14.8"/>
							
								<rect x="60.6" y="98.9" transform="matrix(0.7071 -0.7071 0.7071 0.7071 6.4779 228.3134)" class="st8" width="436.5" height="14.8"/>
						</g>
					</g>
				</g>
			</g>
		</g>
	</g>
</g>
<g>
	<defs>
		<rect id="SVGID_00000020377914841924110370000005885033414951013507_" x="-951.2" y="544.7" width="1199.2" height="700"/>
	</defs>
	<clipPath id="SVGID_00000099647180530872842160000004595221654673407375_">
		<use xlink:href="#SVGID_00000020377914841924110370000005885033414951013507_"  style="overflow:visible;"/>
	</clipPath>
	<g style="clip-path:url(#SVGID_00000099647180530872842160000004595221654673407375_);">
		<g class="st12">
			<g>
				<defs>
					<polygon id="SVGID_00000043418383440120042360000014885702183122043549_" points="-948.7,1244.7 -948.7,548.2 -137.8,548.2 
											"/>
				</defs>
				<clipPath id="SVGID_00000121241873142029984480000010947475182309957764_">
					<use xlink:href="#SVGID_00000043418383440120042360000014885702183122043549_"  style="overflow:visible;"/>
				</clipPath>
				<g style="clip-path:url(#SVGID_00000121241873142029984480000010947475182309957764_);">
					<g>
						<circle class="st14" cx="147.6" cy="254.8" r="45"/>
						<circle class="st14" cx="147.6" cy="140.6" r="45.1"/>
						<circle class="st14" cx="37.5" cy="311.9" r="45"/>
						<circle class="st14" cx="37.5" cy="197.7" r="45"/>
					</g>
				</g>
			</g>
		</g>
	</g>
</g>
</svg>
