<?xml version="1.0" encoding="utf-8"?>
<!-- Generator: Adobe Illustrator 27.2.0, SVG Export Plug-In . SVG Version: 6.00 Build 0)  -->
<svg version="1.1" id="Layer_1" xmlns="http://www.w3.org/2000/svg" xmlns:xlink="http://www.w3.org/1999/xlink" x="0px" y="0px"
	 viewBox="0 0 411.7 156" style="enable-background:new 0 0 411.7 156;" xml:space="preserve">
<style type="text/css">
	.st0{fill:#193773;}
	.st1{fill:#F26835;}
	.st2{fill:#FFFFFF;}
	.st3{fill:#00AED6;}
	.st4{fill:#F2DA5E;}
	.st5{fill:#F2CA99;}
</style>
<g>
	<polygon class="st1" points="377,156 0,156 34.7,0 411.7,0 	"/>
	<g>
		<path class="st2" d="M79.3,26.5h32.5L92,90.6l37.6-64.1h33.5l-67.6,102H55.4L79.3,26.5z"/>
		<path class="st2" d="M168.3,26.5h31.5l-46.5,102h-31.5L168.3,26.5z"/>
		<path class="st2" d="M210.7,26.5h29.4l-5.2,42.8l18.7-42.8h31.2l-46.5,102h-30l5.8-45l-19.7,45h-30.2L210.7,26.5z"/>
		<path class="st2" d="M295.5,26.5H327l-19.4,42.4l31-42.4H370l-44.3,60.2l-2.6,41.8h-31.3l6.6-38.2l-17.8,38.2h-31.5L295.5,26.5z"
			/>
	</g>
</g>
</svg>
