<?xml version="1.0" encoding="utf-8"?>
<!-- Generator: Adobe Illustrator 27.2.0, SVG Export Plug-In . SVG Version: 6.00 Build 0)  -->
<svg version="1.1" id="Layer_1" xmlns="http://www.w3.org/2000/svg" xmlns:xlink="http://www.w3.org/1999/xlink" x="0px" y="0px"
	 viewBox="0 0 1199.2 700" style="enable-background:new 0 0 1199.2 700;" xml:space="preserve">
<style type="text/css">
	.st0{fill:#F2DA5E;}
	.st1{clip-path:url(#SVGID_00000152261104903691544050000008806589288860528568_);}
	.st2{opacity:0.5;}
	.st3{fill:#FFFFFF;}
</style>
<g>
	<rect class="st0" width="1199.2" height="700"/>
	<g>
		<defs>
			<rect id="SVGID_1_" width="1199.2" height="700"/>
		</defs>
		<clipPath id="SVGID_00000176014552513776695230000005922304919290146486_">
			<use xlink:href="#SVGID_1_"  style="overflow:visible;"/>
		</clipPath>
		<g style="clip-path:url(#SVGID_00000176014552513776695230000005922304919290146486_);">
			<g class="st2">
				<polygon class="st3" points="1144.8,384.5 1144.8,383.8 1144.8,228.1 1144.8,227.3 988.3,227.3 989.1,228.1 988.3,228.1 				"/>
				<polygon class="st3" points="1249.9,279.5 1249.9,123 1093.4,123 				"/>
				<polygon class="st3" points="1355,17.9 1198.6,17.9 1355,174.3 				"/>
				<polygon class="st3" points="1039.7,803.4 1039.7,647.8 1039.7,647 883.2,647 884,647.8 883.2,647.8 1039.7,804.2 				"/>
				<polygon class="st3" points="1144.8,698.3 1144.8,542.6 1144.8,541.9 988.3,541.9 989.1,542.6 988.3,542.6 1144.8,699.1 				"/>
				<polygon class="st3" points="1249.9,594 1249.9,437.5 1093.4,437.5 				"/>
				<polygon class="st3" points="1355,332.4 1198.6,332.4 1355,488.9 				"/>
				<polygon class="st3" points="1355,647 1198.6,647 1355,803.4 				"/>
				<polygon class="st3" points="724.4,489.7 724.4,488.9 724.4,333.2 724.4,332.4 567.9,332.4 568.7,333.2 567.9,333.2 				"/>
				<polygon class="st3" points="829.5,384.5 829.5,383.8 829.5,228.1 829.5,227.3 673,227.3 673.8,228.1 673,228.1 				"/>
				<polygon class="st3" points="934.6,279.5 934.6,123 778.1,123 				"/>
				<polygon class="st3" points="1039.7,17.9 883.2,17.9 1039.7,174.3 				"/>
				<polygon class="st3" points="1144.8,-87.2 988.3,-87.2 1144.8,69.2 				"/>
				<polygon class="st3" points="724.4,804.2 724.4,803.4 724.4,647.8 724.4,647 567.9,647 568.7,647.8 567.9,647.8 				"/>
				<polygon class="st3" points="829.5,698.3 829.5,542.6 829.5,541.9 673,541.9 673.8,542.6 673,542.6 829.5,699.1 				"/>
				<polygon class="st3" points="934.6,437.5 778.1,437.5 934.6,594 				"/>
				<polygon class="st3" points="884,333.2 883.2,333.2 1039.7,489.7 1039.7,488.9 1039.7,333.2 1039.7,332.4 883.2,332.4 				"/>
				<polygon class="st3" points="409.1,647.8 252.6,647.8 409.1,804.2 				"/>
				<polygon class="st3" points="514.2,699.1 514.2,542.6 357.7,542.6 				"/>
				<polygon class="st3" points="619.3,594 619.3,437.5 462.8,437.5 				"/>
			</g>
		</g>
	</g>
</g>
</svg>
