<?xml version="1.0" encoding="UTF-8" standalone="no"?>
<!-- Created with Inkscape (http://www.inkscape.org/) -->
<svg
   version="1.1"
   id="svg9"
   xmlSpace="preserve"
   width="608"
   height="410.66666"
   viewBox="0 0 608 410.66666"
   xmlns="http://www.w3.org/2000/svg"
   xmlnsSvg="http://www.w3.org/2000/svg"><defs
     id="defs13"><clipPath
       clipPathUnits="userSpaceOnUse"
       id="clipPath23"><path
         d="M 0,308 H 456 V 0 H 0 Z"
         id="path21" /></clipPath></defs><g
     id="g15"
     transform="matrix(1.3333333,0,0,-1.3333333,0,410.66667)"><g
       id="g215"><path
         d="m 269.9329,89.4661 c 23.437,11.883 39.1,33.426 39.1,58.031 0,24.605 -15.663,46.148 -39.1,58.032 42.321,-14.269 75.749,-45.682 87.732,-58.032 -11.983,-12.349 -45.411,-43.762 -87.732,-58.031 m -171.597,58.031 c 11.982,12.35 45.41,43.763 87.731,58.032 -23.437,-11.884 -39.1,-33.427 -39.1,-58.032 0,-24.605 15.664,-46.148 39.102,-58.032 -42.326,14.27 -75.755,45.687 -87.733,58.032 m 274.884,5.119 c -0.662,0.772 -16.522,19.116 -42.24,37.644 -34.323,24.729 -69.932,37.8 -102.98,37.8 -33.048,0 -68.657,-13.071 -102.979,-37.8 -25.718,-18.528 -41.579,-36.872 -42.241,-37.644 -2.497,-2.908 -2.497,-7.33 0,-10.237 0.662,-0.772 16.523,-19.116 42.241,-37.645 34.322,-24.728 69.931,-37.799 102.979,-37.799 33.048,0 68.657,13.071 102.98,37.799 25.718,18.529 41.578,36.873 42.24,37.645 2.497,2.907 2.497,7.329 0,10.237"
         style="fill:#193773;fill-opacity:1;fill-rule:nonzero;stroke:none"
         id="path27" /></g></g></svg>
