<?xml version="1.0" encoding="UTF-8"?><svg xmlns="http://www.w3.org/2000/svg" xmlns:xlink="http://www.w3.org/1999/xlink" viewBox="0 0 456 308"><defs><style>.h,.i{fill:#fff;}.j{opacity:.5;}.k{fill:#f26835;}.l{clip-path:url(#e);}.m{opacity:.26;}.n{clip-path:url(#d);}.o{fill:none;}.p{clip-path:url(#f);}.q{fill:#f2da5e;}.i{opacity:.27;}.r{clip-path:url(#g);}</style><clipPath id="d"><rect class="q" width="456" height="308"/></clipPath><clipPath id="e"><polygon class="o" points="541.57 569.79 345.83 765.53 -65.24 339.58 130.5 143.84 541.57 569.79"/></clipPath><clipPath id="f"><polygon class="o" points="1.08 308 1.08 0 454.92 0 1.08 308"/></clipPath><clipPath id="g"><path class="o" d="M403.75,17.16h0c65.8,0,118.36,54.78,115.65,120.52h0c-2.56,62.02-53.58,110.99-115.65,110.99h0c-65.8,0-118.36-54.78-115.65-120.52h0c2.56-62.02,53.58-110.99,115.65-110.99Z"/></clipPath></defs><g id="a"/><g id="b"><g id="c"><g><rect class="q" width="456" height="308"/><g class="n"><g class="l"><g><rect class="i" x="-.17" y="-26.25" width="28.15" height="827.67"/><rect class="i" x="61.29" y="-26.25" width="25.15" height="827.67"/><rect class="i" x="116.75" y="-26.25" width="28.15" height="827.67"/><rect class="i" x="175.2" y="-26.25" width="28.15" height="827.67"/><rect class="i" x="233.66" y="-26.25" width="28.15" height="827.67"/><rect class="k" x="295.12" y="-26.25" width="28.15" height="827.67"/><rect class="k" x="353.58" y="-26.25" width="28.15" height="827.67"/><rect class="k" x="412.03" y="-26.25" width="28.15" height="827.67"/></g></g><g class="m"><g class="p"><g><circle class="h" cx="437.24" cy="299.66" r="19.93"/><circle class="h" cx="437.24" cy="249.14" r="19.93"/><circle class="h" cx="437.24" cy="198.61" r="19.93"/><circle class="h" cx="437.24" cy="148.09" r="19.93"/><circle class="h" cx="437.24" cy="97.57" r="19.93"/><circle class="h" cx="437.24" cy="47.05" r="19.93"/><circle class="h" cx="437.24" cy="-3.47" r="19.93"/><circle class="h" cx="388.52" cy="274.4" r="19.93"/><circle class="h" cx="388.52" cy="223.87" r="19.93"/><circle class="h" cx="388.52" cy="173.35" r="19.93"/><circle class="h" cx="388.52" cy="122.83" r="19.93"/><circle class="h" cx="388.52" cy="72.31" r="19.93"/><circle class="h" cx="388.52" cy="21.79" r="19.93"/><circle class="h" cx="339.8" cy="299.66" r="19.93"/><circle class="h" cx="339.8" cy="249.14" r="19.93"/><circle class="h" cx="339.8" cy="198.61" r="19.93"/><circle class="h" cx="339.8" cy="148.09" r="19.93"/><circle class="h" cx="339.8" cy="97.57" r="19.93"/><circle class="h" cx="339.8" cy="47.05" r="19.93"/><circle class="h" cx="339.8" cy="-3.47" r="19.93"/><circle class="h" cx="291.08" cy="274.4" r="19.93"/><circle class="h" cx="291.08" cy="223.87" r="19.93"/><circle class="h" cx="291.08" cy="173.35" r="19.93"/><circle class="h" cx="291.08" cy="122.83" r="19.93"/><circle class="h" cx="291.08" cy="72.31" r="19.93"/><circle class="h" cx="291.08" cy="21.79" r="19.93"/><circle class="h" cx="242.36" cy="299.66" r="19.93"/><circle class="h" cx="242.36" cy="249.14" r="19.93"/><circle class="h" cx="242.36" cy="198.61" r="19.93"/><circle class="h" cx="242.36" cy="148.09" r="19.93"/><circle class="h" cx="242.36" cy="97.57" r="19.93"/><circle class="h" cx="242.36" cy="47.05" r="19.93"/><circle class="h" cx="242.36" cy="-3.47" r="19.93"/><circle class="h" cx="193.64" cy="274.4" r="19.93"/><circle class="h" cx="193.64" cy="223.87" r="19.93"/><circle class="h" cx="193.64" cy="173.35" r="19.93"/><circle class="h" cx="193.64" cy="122.83" r="19.93"/><circle class="h" cx="193.64" cy="72.31" r="19.93"/><circle class="h" cx="193.64" cy="21.79" r="19.93"/><circle class="h" cx="144.92" cy="299.66" r="19.93"/><circle class="h" cx="144.92" cy="249.14" r="19.93"/><circle class="h" cx="144.92" cy="198.61" r="19.93"/><circle class="h" cx="144.92" cy="148.09" r="19.93"/><circle class="h" cx="144.92" cy="97.57" r="19.93"/><circle class="h" cx="144.92" cy="47.05" r="19.93"/><circle class="h" cx="144.92" cy="-3.47" r="19.93"/><circle class="h" cx="96.2" cy="274.4" r="19.93"/><circle class="h" cx="96.2" cy="223.87" r="19.93"/><circle class="h" cx="96.2" cy="173.35" r="19.93"/><circle class="h" cx="96.2" cy="122.83" r="19.93"/><circle class="h" cx="96.2" cy="72.31" r="19.93"/><circle class="h" cx="96.2" cy="21.79" r="19.93"/><circle class="h" cx="47.47" cy="299.66" r="19.93"/><circle class="h" cx="47.47" cy="249.14" r="19.93"/><circle class="h" cx="47.47" cy="198.61" r="19.93"/><circle class="h" cx="47.47" cy="148.09" r="19.93"/><circle class="h" cx="47.47" cy="97.57" r="19.93"/><circle class="h" cx="47.47" cy="47.05" r="19.93"/><circle class="h" cx="47.47" cy="-3.47" r="19.93"/><circle class="h" cx="-1.25" cy="274.4" r="19.93"/><circle class="h" cx="-1.25" cy="223.87" r="19.93"/><circle class="h" cx="-1.25" cy="173.35" r="19.93"/><circle class="h" cx="-1.25" cy="122.83" r="19.93"/><circle class="h" cx="-1.25" cy="72.31" r="19.93"/><circle class="h" cx="-1.25" cy="21.79" r="19.93"/></g></g></g><g class="j"><g class="r"><g><rect class="h" x="509.31" y="127.88" width="14.84" height="436.51" transform="translate(637.36 956.28) rotate(-135)"/><rect class="h" x="487.51" y="106.08" width="14.84" height="436.51" transform="translate(615.56 903.65) rotate(-135)"/><rect class="h" x="465.71" y="84.28" width="14.84" height="436.51" transform="translate(593.76 851.02) rotate(-135)"/><rect class="h" x="443.91" y="62.48" width="14.84" height="436.51" transform="translate(571.95 798.39) rotate(-135)"/><rect class="h" x="422.11" y="40.68" width="14.84" height="436.51" transform="translate(550.15 745.76) rotate(-135)"/><rect class="h" x="400.31" y="18.88" width="14.84" height="436.51" transform="translate(528.35 693.13) rotate(-135)"/><rect class="h" x="378.51" y="-2.92" width="14.84" height="436.51" transform="translate(506.55 640.5) rotate(-135)"/><rect class="h" x="356.71" y="-24.72" width="14.84" height="436.51" transform="translate(484.75 587.86) rotate(-135)"/><rect class="h" x="334.91" y="-46.52" width="14.84" height="436.51" transform="translate(462.95 535.23) rotate(-135)"/><rect class="h" x="313.11" y="-68.32" width="14.84" height="436.51" transform="translate(441.15 482.6) rotate(-135)"/><rect class="h" x="291.3" y="-90.12" width="14.84" height="436.51" transform="translate(419.35 429.97) rotate(-135)"/><rect class="h" x="269.5" y="-111.92" width="14.84" height="436.51" transform="translate(397.55 377.34) rotate(-135)"/></g></g></g></g></g><path class="k" d="M330.03,116.78c-1.79-14.72-8.96-26.93-20.19-34.4-6.96-4.62-14.86-7-23.01-7.32-19.37-.77-40.19,10.01-53.25,29.67-9.4,14.15-15,33.17-14.96,50.86,.03,16.63,5.09,30.09,13.99,37.5-12.59,11.3-26.93,9.27-45.59,6.62-8.66-1.23-18.48-2.63-28.88-2.63-19.56,0-35.61,9.46-46.43,27.35-4.88,8.07-7.63,16.1-9.03,21.21-.8,2.91,1.09,5.86,4.07,6.37,2.59,.44,5.08-1.14,5.78-3.67,1.24-4.49,3.71-11.74,8.07-18.88,8.99-14.71,21.63-22.17,37.55-22.17,9.68,0,18.71,1.28,27.45,2.52,20.38,2.9,39.76,5.65,56.4-11.58,9.81,3.24,22.36,2.11,35.67-3.43,16.36-6.81,31.74-19.32,41.13-33.47,9.08-13.67,13.08-29.5,11.25-44.56Zm-89.81,5.29c-6.79,10.22-11.28,23.01-12.87,35.65-.19-1.96-.29-3.98-.29-6.07-.03-14.99,4.71-31.1,12.68-43.09,1.62-2.44,3.39-4.72,5.27-6.83l4.8,8.95c-3.52,3.32-6.75,7.12-9.59,11.39Zm23.22-21.15l-5.67-9.95c8.52-5.26,17.99-7.91,27.08-7.55,1.15,.05,2.29,.14,3.42,.29l2.36,11.05c-9.09-.55-18.5,1.6-27.19,6.16Z"/></g></g></svg>