<?xml version="1.0" encoding="UTF-8"?><svg id="Layer_2" xmlns="http://www.w3.org/2000/svg" viewBox="0 0 88.6 33.57"><g id="Layer_1-2"><g><polygon points="81.13 33.57 0 33.57 7.46 0 88.6 0 81.13 33.57" fill="#f26835"/><g><path d="M17.06,5.7h6.99l-4.26,13.8L27.88,5.7h7.21l-14.55,21.95H11.92L17.06,5.7Z" fill="#fff"/><path d="M36.22,5.7h6.77l-10,21.95h-6.77L36.22,5.7Z" fill="#fff"/><path d="M45.35,5.7h6.33l-1.13,9.22,4.01-9.22h6.71l-10,21.95h-6.46l1.25-9.69-4.23,9.69h-6.49L45.35,5.7Z" fill="#fff"/><path d="M63.6,5.7h6.77l-4.17,9.13,6.68-9.13h6.74l-9.53,12.95-.57,9h-6.74l1.41-8.22-3.83,8.22h-6.77L63.6,5.7Z" fill="#fff"/></g></g></g></svg>